<svg width="35" height="37" viewBox="0 0 35 37" fill="none" xmlns="http://www.w3.org/2000/svg">
    <g clip-path="url(#clip0_304_2)">
        <path d="M1.48912 19.392L5.33874 16.2641C6.23086 15.5395 7.54212 15.6747 8.26727 16.5659C8.99276 17.4574 8.85746 18.7678 7.96534 19.4925L6.10238 21.0062L19.6284 32.3957C20.5205 33.1203 20.6558 34.4308 19.9303 35.322C19.519 35.828 18.9189 36.0902 18.3141 36.0902C17.8527 36.0902 17.3879 35.9377 17.0021 35.624L1.48912 22.6204C1.00319 22.2253 0.720703 21.6325 0.720703 21.0062C0.720703 20.3799 1.00319 19.7874 1.48912 19.392Z" fill="white"/>
        <path d="M18.5838 0.280034C19.6889 0.288888 20.578 1.19134 20.5691 2.29606L20.3971 34.1059C20.3882 35.2106 19.4848 36.0988 18.3797 36.0899C18.0996 36.0879 17.8338 36.0283 17.5926 35.9227C16.8821 35.6111 16.3876 34.899 16.3941 34.0739L16.5665 2.26438C16.5754 1.15966 17.4784 0.27118 18.5838 0.280034Z" fill="white"/>
        <path d="M27.369 22.1613L28.7907 21.0062L23.727 16.8914C22.8348 16.1667 22.6999 14.8563 23.425 13.9651C24.1502 13.0732 25.4615 12.9384 26.3536 13.6631L33.4036 19.392C33.8899 19.7874 34.1721 20.3799 34.1721 21.0062C34.1721 21.6325 33.8899 22.2253 33.4036 22.6204L29.9957 25.3897C29.6096 25.7033 29.1451 25.8559 28.6837 25.8559C28.0785 25.8559 27.4784 25.5936 27.0671 25.0879C26.342 24.1964 26.4773 22.8863 27.369 22.1613Z" fill="#317355"/>
    </g>
    <defs>
        <clipPath id="clip0_304_2">
            <rect width="35" height="37" fill="white"/>
        </clipPath>
    </defs>
</svg>
