<svg width="550" height="400" viewBox="0 0 550 400" fill="none" xmlns="http://www.w3.org/2000/svg">
    <g clip-path="url(#clip0_14_39)">
        <path d="M320.36 70.5154C330.667 70.5154 339.023 62.1595 339.023 51.8519C339.023 41.5444 330.667 33.1885 320.36 33.1885C310.052 33.1885 301.696 41.5444 301.696 51.8519C301.696 62.1595 310.052 70.5154 320.36 70.5154Z" fill="#F2F2F2"/>
        <path d="M465.138 347.502C492.879 326.373 506.129 290.866 497.834 256.996C497.628 256.154 497.41 255.315 497.181 254.477C491.682 234.372 478.077 215.263 458.248 208.839C441.598 203.445 423.425 207.593 406.055 205.448C371.958 201.237 345.523 173.648 326.922 144.763C308.322 115.877 294.027 83.543 269.311 59.6791C228.57 20.3434 162.113 11.8744 111.601 37.479C61.0888 63.0836 28.9132 119.89 30.2854 176.504C31.6577 233.118 65.267 287.245 114.076 315.963C132.007 326.513 152.745 333.987 173.384 331.372C191.292 329.103 207.564 319.48 225.388 316.623C253.411 312.132 281.255 324.802 305.493 339.567C329.731 354.331 353.143 371.832 380.686 378.677C407.43 385.323 440.564 366.22 465.138 347.502Z" fill="#F2F2F2"/>
        <path d="M425.281 38.6679C424.673 38.2625 424.058 37.878 423.449 37.4866C405.871 26.244 387.029 17.1106 367.314 10.2751L362.743 73.3376H333.763V1.06945C331.938 0.691995 330.1 0.335513 328.262 0V73.3376H293.823C274.863 73.3376 256.681 65.8061 243.275 52.4001C229.869 38.994 222.337 20.8114 222.337 1.85239C220.492 2.25081 218.661 2.67713 216.829 3.13147V73.3376H188.779L184.424 13.2039C164.164 20.974 144.93 31.1921 127.149 43.6307C126.842 43.8404 126.534 44.0571 126.234 44.2668C124.689 45.3502 123.165 46.4546 121.648 47.573V288.157H204.317L202.857 267.921L194.818 156.817H356.696L348.658 267.921L347.197 288.157H428.95V41.1004C427.734 40.2756 426.511 39.4648 425.281 38.6679ZM216.829 138.469H193.49L189.177 78.8456H216.829V138.469ZM328.262 138.469H289.063V137.288C289.063 136.72 288.951 136.158 288.733 135.633C288.516 135.108 288.197 134.632 287.795 134.231C287.393 133.83 286.916 133.511 286.391 133.295C285.866 133.078 285.304 132.967 284.736 132.968H267.695C267.127 132.968 266.565 133.079 266.041 133.296C265.517 133.513 265.041 133.832 264.64 134.233C264.238 134.634 263.92 135.11 263.703 135.634C263.486 136.159 263.375 136.72 263.375 137.288V138.469H222.337V78.8456H328.262V138.469ZM333.763 138.469V78.8456H362.344L358.031 138.469H333.763Z" fill="#3F3D56"/>
        <path d="M0 303.563C6.07227 310.758 12.6401 317.52 19.6555 323.799L530.32 324.498C537.336 318.219 543.904 311.457 549.976 304.262L0 303.563Z" fill="#3F3D56"/>
        <path d="M346.299 238.767V298.673C346.299 299.437 346.603 300.169 347.143 300.708C347.683 301.248 348.415 301.552 349.178 301.552H437.952C438.716 301.552 439.448 301.248 439.988 300.708C440.527 300.169 440.831 299.437 440.831 298.673V238.767C440.83 238.005 440.526 237.274 439.986 236.735C439.446 236.196 438.715 235.892 437.952 235.891H349.178C348.415 235.892 347.684 236.196 347.144 236.735C346.605 237.274 346.301 238.005 346.299 238.767Z" fill="#3F3D56"/>
        <path d="M348.381 239.513V297.934C348.382 298.342 348.544 298.733 348.832 299.022C349.121 299.31 349.512 299.472 349.92 299.473H437.213C437.621 299.472 438.012 299.31 438.3 299.022C438.588 298.733 438.751 298.342 438.752 297.934V239.513C438.751 239.105 438.589 238.713 438.301 238.424C438.013 238.135 437.621 237.972 437.213 237.971H349.92C349.511 237.972 349.12 238.135 348.831 238.424C348.543 238.713 348.381 239.105 348.381 239.513Z" fill="#54B689"/>
        <path d="M344.442 310.357C344.605 310.56 344.811 310.725 345.047 310.837C345.282 310.95 345.54 311.008 345.801 311.006H440.857C441.117 311.006 441.374 310.948 441.608 310.836C441.843 310.724 442.05 310.561 442.213 310.359C442.377 310.157 442.494 309.921 442.555 309.669C442.616 309.416 442.62 309.153 442.567 308.899L441.091 301.89C441.03 301.604 440.898 301.338 440.708 301.116C440.518 300.894 440.275 300.723 440.002 300.619C439.804 300.541 439.594 300.502 439.381 300.502H347.27C347.058 300.502 346.847 300.541 346.65 300.619C346.376 300.723 346.134 300.894 345.944 301.116C345.753 301.338 345.622 301.604 345.56 301.89L344.085 308.899C344.032 309.153 344.037 309.416 344.099 309.668C344.161 309.92 344.278 310.155 344.442 310.357Z" fill="#2F2E41"/>
        <path d="M436.12 303.521H438.365C438.553 303.521 438.706 303.368 438.706 303.18V302.105C438.706 301.917 438.553 301.764 438.365 301.764H436.12C435.931 301.764 435.778 301.917 435.778 302.105V303.18C435.778 303.368 435.931 303.521 436.12 303.521Z" fill="#3F3D56"/>
        <path d="M430.264 303.521H432.509C432.698 303.521 432.851 303.368 432.851 303.18V302.105C432.851 301.917 432.698 301.764 432.509 301.764H430.264C430.076 301.764 429.923 301.917 429.923 302.105V303.18C429.923 303.368 430.076 303.521 430.264 303.521Z" fill="#3F3D56"/>
        <path d="M424.409 303.521H426.654C426.842 303.521 426.995 303.368 426.995 303.18V302.105C426.995 301.917 426.842 301.764 426.654 301.764H424.409C424.22 301.764 424.067 301.917 424.067 302.105V303.18C424.067 303.368 424.22 303.521 424.409 303.521Z" fill="#3F3D56"/>
        <path d="M418.553 303.521H420.798C420.987 303.521 421.14 303.368 421.14 303.18V302.105C421.14 301.917 420.987 301.764 420.798 301.764H418.553C418.365 301.764 418.212 301.917 418.212 302.105V303.18C418.212 303.368 418.365 303.521 418.553 303.521Z" fill="#3F3D56"/>
        <path d="M412.698 303.521H414.943C415.131 303.521 415.284 303.368 415.284 303.18V302.105C415.284 301.917 415.131 301.764 414.943 301.764H412.698C412.509 301.764 412.356 301.917 412.356 302.105V303.18C412.356 303.368 412.509 303.521 412.698 303.521Z" fill="#3F3D56"/>
        <path d="M406.842 303.521H409.087C409.276 303.521 409.429 303.368 409.429 303.18V302.105C409.429 301.917 409.276 301.764 409.087 301.764H406.842C406.654 301.764 406.501 301.917 406.501 302.105V303.18C406.501 303.368 406.654 303.521 406.842 303.521Z" fill="#3F3D56"/>
        <path d="M400.987 303.521H403.232C403.42 303.521 403.573 303.368 403.573 303.18V302.105C403.573 301.917 403.42 301.764 403.232 301.764H400.987C400.798 301.764 400.646 301.917 400.646 302.105V303.18C400.646 303.368 400.798 303.521 400.987 303.521Z" fill="#3F3D56"/>
        <path d="M395.132 303.521H397.377C397.566 303.521 397.719 303.368 397.719 303.18V302.105C397.719 301.917 397.566 301.764 397.377 301.764H395.132C394.944 301.764 394.791 301.917 394.791 302.105V303.18C394.791 303.368 394.944 303.521 395.132 303.521Z" fill="#3F3D56"/>
        <path d="M389.277 303.521H391.522C391.711 303.521 391.863 303.368 391.863 303.18V302.105C391.863 301.917 391.711 301.764 391.522 301.764H389.277C389.088 301.764 388.936 301.917 388.936 302.105V303.18C388.936 303.368 389.088 303.521 389.277 303.521Z" fill="#3F3D56"/>
        <path d="M383.421 303.521H385.667C385.855 303.521 386.008 303.368 386.008 303.18V302.105C386.008 301.917 385.855 301.764 385.667 301.764H383.421C383.233 301.764 383.08 301.917 383.08 302.105V303.18C383.08 303.368 383.233 303.521 383.421 303.521Z" fill="#3F3D56"/>
        <path d="M377.566 303.521H379.811C380 303.521 380.152 303.368 380.152 303.18V302.105C380.152 301.917 380 301.764 379.811 301.764H377.566C377.377 301.764 377.225 301.917 377.225 302.105V303.18C377.225 303.368 377.377 303.521 377.566 303.521Z" fill="#3F3D56"/>
        <path d="M371.71 303.521H373.956C374.144 303.521 374.297 303.368 374.297 303.18V302.105C374.297 301.917 374.144 301.764 373.956 301.764H371.71C371.522 301.764 371.369 301.917 371.369 302.105V303.18C371.369 303.368 371.522 303.521 371.71 303.521Z" fill="#3F3D56"/>
        <path d="M365.855 303.521H368.1C368.289 303.521 368.441 303.368 368.441 303.18V302.105C368.441 301.917 368.289 301.764 368.1 301.764H365.855C365.666 301.764 365.514 301.917 365.514 302.105V303.18C365.514 303.368 365.666 303.521 365.855 303.521Z" fill="#3F3D56"/>
        <path d="M359.999 303.521H362.245C362.433 303.521 362.586 303.368 362.586 303.18V302.105C362.586 301.917 362.433 301.764 362.245 301.764H359.999C359.811 301.764 359.658 301.917 359.658 302.105V303.18C359.658 303.368 359.811 303.521 359.999 303.521Z" fill="#3F3D56"/>
        <path d="M354.144 303.521H356.389C356.578 303.521 356.73 303.368 356.73 303.18V302.105C356.73 301.917 356.578 301.764 356.389 301.764H354.144C353.956 301.764 353.803 301.917 353.803 302.105V303.18C353.803 303.368 353.956 303.521 354.144 303.521Z" fill="#3F3D56"/>
        <path d="M348.289 303.521H350.534C350.722 303.521 350.875 303.368 350.875 303.18V302.105C350.875 301.917 350.722 301.764 350.534 301.764H348.289C348.1 301.764 347.947 301.917 347.947 302.105V303.18C347.947 303.368 348.1 303.521 348.289 303.521Z" fill="#3F3D56"/>
        <path d="M436.189 306.448H438.434C438.623 306.448 438.775 306.296 438.775 306.107V305.033C438.775 304.845 438.623 304.692 438.434 304.692H436.189C436 304.692 435.848 304.845 435.848 305.033V306.107C435.848 306.296 436 306.448 436.189 306.448Z" fill="#3F3D56"/>
        <path d="M430.333 306.448H432.579C432.767 306.448 432.92 306.296 432.92 306.107V305.033C432.92 304.845 432.767 304.692 432.579 304.692H430.333C430.145 304.692 429.992 304.845 429.992 305.033V306.107C429.992 306.296 430.145 306.448 430.333 306.448Z" fill="#3F3D56"/>
        <path d="M424.478 306.448H426.723C426.912 306.448 427.064 306.296 427.064 306.107V305.033C427.064 304.845 426.912 304.692 426.723 304.692H424.478C424.29 304.692 424.137 304.845 424.137 305.033V306.107C424.137 306.296 424.29 306.448 424.478 306.448Z" fill="#3F3D56"/>
        <path d="M418.623 306.448H420.868C421.056 306.448 421.209 306.296 421.209 306.107V305.033C421.209 304.845 421.056 304.692 420.868 304.692H418.623C418.434 304.692 418.281 304.845 418.281 305.033V306.107C418.281 306.296 418.434 306.448 418.623 306.448Z" fill="#3F3D56"/>
        <path d="M412.767 306.448H415.012C415.201 306.448 415.354 306.296 415.354 306.107V305.033C415.354 304.845 415.201 304.692 415.012 304.692H412.767C412.579 304.692 412.426 304.845 412.426 305.033V306.107C412.426 306.296 412.579 306.448 412.767 306.448Z" fill="#3F3D56"/>
        <path d="M406.912 306.448H409.157C409.345 306.448 409.498 306.296 409.498 306.107V305.033C409.498 304.845 409.345 304.692 409.157 304.692H406.912C406.723 304.692 406.57 304.845 406.57 305.033V306.107C406.57 306.296 406.723 306.448 406.912 306.448Z" fill="#3F3D56"/>
        <path d="M401.056 306.448H403.301C403.49 306.448 403.643 306.296 403.643 306.107V305.033C403.643 304.845 403.49 304.692 403.301 304.692H401.056C400.868 304.692 400.715 304.845 400.715 305.033V306.107C400.715 306.296 400.868 306.448 401.056 306.448Z" fill="#3F3D56"/>
        <path d="M395.201 306.448H397.446C397.634 306.448 397.787 306.296 397.787 306.107V305.033C397.787 304.845 397.634 304.692 397.446 304.692H395.201C395.012 304.692 394.859 304.845 394.859 305.033V306.107C394.859 306.296 395.012 306.448 395.201 306.448Z" fill="#3F3D56"/>
        <path d="M389.345 306.448H391.59C391.779 306.448 391.932 306.296 391.932 306.107V305.033C391.932 304.845 391.779 304.692 391.59 304.692H389.345C389.157 304.692 389.004 304.845 389.004 305.033V306.107C389.004 306.296 389.157 306.448 389.345 306.448Z" fill="#3F3D56"/>
        <path d="M383.49 306.448H385.735C385.923 306.448 386.076 306.296 386.076 306.107V305.033C386.076 304.845 385.923 304.692 385.735 304.692H383.49C383.301 304.692 383.148 304.845 383.148 305.033V306.107C383.148 306.296 383.301 306.448 383.49 306.448Z" fill="#3F3D56"/>
        <path d="M377.635 306.448H379.88C380.069 306.448 380.222 306.296 380.222 306.107V305.033C380.222 304.845 380.069 304.692 379.88 304.692H377.635C377.447 304.692 377.294 304.845 377.294 305.033V306.107C377.294 306.296 377.447 306.448 377.635 306.448Z" fill="#3F3D56"/>
        <path d="M371.78 306.448H374.025C374.213 306.448 374.366 306.296 374.366 306.107V305.033C374.366 304.845 374.213 304.692 374.025 304.692H371.78C371.591 304.692 371.439 304.845 371.439 305.033V306.107C371.439 306.296 371.591 306.448 371.78 306.448Z" fill="#3F3D56"/>
        <path d="M365.924 306.448H368.17C368.358 306.448 368.511 306.296 368.511 306.107V305.033C368.511 304.845 368.358 304.692 368.17 304.692H365.924C365.736 304.692 365.583 304.845 365.583 305.033V306.107C365.583 306.296 365.736 306.448 365.924 306.448Z" fill="#3F3D56"/>
        <path d="M360.069 306.448H362.314C362.502 306.448 362.655 306.296 362.655 306.107V305.033C362.655 304.845 362.502 304.692 362.314 304.692H360.069C359.88 304.692 359.728 304.845 359.728 305.033V306.107C359.728 306.296 359.88 306.448 360.069 306.448Z" fill="#3F3D56"/>
        <path d="M354.213 306.448H356.459C356.647 306.448 356.8 306.296 356.8 306.107V305.033C356.8 304.845 356.647 304.692 356.459 304.692H354.213C354.025 304.692 353.872 304.845 353.872 305.033V306.107C353.872 306.296 354.025 306.448 354.213 306.448Z" fill="#3F3D56"/>
        <path d="M348.358 306.448H350.603C350.792 306.448 350.944 306.296 350.944 306.107V305.033C350.944 304.845 350.792 304.692 350.603 304.692H348.358C348.169 304.692 348.017 304.845 348.017 305.033V306.107C348.017 306.296 348.169 306.448 348.358 306.448Z" fill="#3F3D56"/>
        <path d="M387.589 309.962H410.328C410.516 309.962 410.669 309.809 410.669 309.62V308.546C410.669 308.358 410.516 308.205 410.328 308.205H387.589C387.4 308.205 387.247 308.358 387.247 308.546V309.62C387.247 309.809 387.4 309.962 387.589 309.962Z" fill="#3F3D56"/>
        <path d="M363.498 250.752H361.51C360.907 250.752 360.419 251.241 360.419 251.843C360.419 252.446 360.907 252.935 361.51 252.935H363.498C364.1 252.935 364.589 252.446 364.589 251.843C364.589 251.241 364.1 250.752 363.498 250.752Z" fill="white"/>
        <path d="M386.231 250.752H384.244C383.641 250.752 383.152 251.241 383.152 251.843C383.152 252.446 383.641 252.935 384.244 252.935H386.231C386.834 252.935 387.322 252.446 387.322 251.843C387.322 251.241 386.834 250.752 386.231 250.752Z" fill="white"/>
        <path d="M392.672 250.752H390.684C390.081 250.752 389.593 251.241 389.593 251.843C389.593 252.446 390.081 252.935 390.684 252.935H392.672C393.274 252.935 393.763 252.446 393.763 251.843C393.763 251.241 393.274 250.752 392.672 250.752Z" fill="white"/>
        <path d="M380.048 250.57H367.694C367.091 250.57 366.603 251.059 366.603 251.661C366.603 252.264 367.091 252.752 367.694 252.752H380.048C380.65 252.752 381.139 252.264 381.139 251.661C381.139 251.059 380.65 250.57 380.048 250.57Z" fill="white"/>
        <path d="M410.358 250.57H398.004C397.402 250.57 396.913 251.059 396.913 251.661C396.913 252.264 397.402 252.752 398.004 252.752H410.358C410.961 252.752 411.449 252.264 411.449 251.661C411.449 251.059 410.961 250.57 410.358 250.57Z" fill="white"/>
        <path d="M369.559 255.677H367.572C366.969 255.677 366.48 256.166 366.48 256.769C366.48 257.371 366.969 257.86 367.572 257.86H369.559C370.162 257.86 370.651 257.371 370.651 256.769C370.651 256.166 370.162 255.677 369.559 255.677Z" fill="white"/>
        <path d="M392.293 255.677H390.305C389.702 255.677 389.214 256.166 389.214 256.769C389.214 257.371 389.702 257.86 390.305 257.86H392.293C392.895 257.86 393.384 257.371 393.384 256.769C393.384 256.166 392.895 255.677 392.293 255.677Z" fill="white"/>
        <path d="M398.734 255.677H396.746C396.144 255.677 395.655 256.166 395.655 256.769C395.655 257.371 396.144 257.86 396.746 257.86H398.734C399.337 257.86 399.825 257.371 399.825 256.769C399.825 256.166 399.337 255.677 398.734 255.677Z" fill="white"/>
        <path d="M386.109 255.496H373.755C373.153 255.496 372.664 255.984 372.664 256.587C372.664 257.189 373.153 257.678 373.755 257.678H386.109C386.712 257.678 387.2 257.189 387.2 256.587C387.2 255.984 386.712 255.496 386.109 255.496Z" fill="white"/>
        <path d="M416.421 255.496H404.067C403.464 255.496 402.976 255.984 402.976 256.587C402.976 257.189 403.464 257.678 404.067 257.678H416.421C417.023 257.678 417.512 257.189 417.512 256.587C417.512 255.984 417.023 255.496 416.421 255.496Z" fill="white"/>
        <path d="M375.622 260.603H373.634C373.031 260.603 372.543 261.092 372.543 261.694C372.543 262.297 373.031 262.785 373.634 262.785H375.622C376.224 262.785 376.713 262.297 376.713 261.694C376.713 261.092 376.224 260.603 375.622 260.603Z" fill="white"/>
        <path d="M398.355 260.603H396.368C395.765 260.603 395.276 261.092 395.276 261.694C395.276 262.297 395.765 262.785 396.368 262.785H398.355C398.958 262.785 399.446 262.297 399.446 261.694C399.446 261.092 398.958 260.603 398.355 260.603Z" fill="white"/>
        <path d="M404.796 260.603H402.808C402.205 260.603 401.717 261.092 401.717 261.694C401.717 262.297 402.205 262.785 402.808 262.785H404.796C405.398 262.785 405.887 262.297 405.887 261.694C405.887 261.092 405.398 260.603 404.796 260.603Z" fill="white"/>
        <path d="M392.172 260.421H379.818C379.215 260.421 378.727 260.91 378.727 261.512C378.727 262.115 379.215 262.603 379.818 262.603H392.172C392.774 262.603 393.263 262.115 393.263 261.512C393.263 260.91 392.774 260.421 392.172 260.421Z" fill="white"/>
        <path d="M422.482 260.421H410.128C409.526 260.421 409.037 260.91 409.037 261.512C409.037 262.115 409.526 262.603 410.128 262.603H422.482C423.085 262.603 423.573 262.115 423.573 261.512C423.573 260.91 423.085 260.421 422.482 260.421Z" fill="white"/>
        <path d="M381.684 265.529H379.697C379.094 265.529 378.605 266.017 378.605 266.62C378.605 267.222 379.094 267.711 379.697 267.711H381.684C382.287 267.711 382.775 267.222 382.775 266.62C382.775 266.017 382.287 265.529 381.684 265.529Z" fill="white"/>
        <path d="M404.417 265.529H402.429C401.826 265.529 401.338 266.017 401.338 266.62C401.338 267.222 401.826 267.711 402.429 267.711H404.417C405.019 267.711 405.508 267.222 405.508 266.62C405.508 266.017 405.019 265.529 404.417 265.529Z" fill="white"/>
        <path d="M410.858 265.529H408.87C408.268 265.529 407.779 266.017 407.779 266.62C407.779 267.222 408.268 267.711 408.87 267.711H410.858C411.461 267.711 411.949 267.222 411.949 266.62C411.949 266.017 411.461 265.529 410.858 265.529Z" fill="white"/>
        <path d="M398.234 265.347H385.88C385.278 265.347 384.789 265.835 384.789 266.438C384.789 267.04 385.278 267.529 385.88 267.529H398.234C398.837 267.529 399.325 267.04 399.325 266.438C399.325 265.835 398.837 265.347 398.234 265.347Z" fill="white"/>
        <path d="M386.231 285.115H384.244C383.641 285.115 383.152 285.603 383.152 286.206C383.152 286.808 383.641 287.297 384.244 287.297H386.231C386.834 287.297 387.322 286.808 387.322 286.206C387.322 285.603 386.834 285.115 386.231 285.115Z" fill="white"/>
        <path d="M392.672 285.115H390.684C390.081 285.115 389.593 285.603 389.593 286.206C389.593 286.808 390.081 287.297 390.684 287.297H392.672C393.274 287.297 393.763 286.808 393.763 286.206C393.763 285.603 393.274 285.115 392.672 285.115Z" fill="white"/>
        <path d="M410.358 285.296H398.004C397.402 285.296 396.913 285.785 396.913 286.388C396.913 286.99 397.402 287.479 398.004 287.479H410.358C410.961 287.479 411.449 286.99 411.449 286.388C411.449 285.785 410.961 285.296 410.358 285.296Z" fill="white"/>
        <path d="M363.498 285.115H361.51C360.907 285.115 360.419 285.603 360.419 286.206C360.419 286.808 360.907 287.297 361.51 287.297H363.498C364.1 287.297 364.589 286.808 364.589 286.206C364.589 285.603 364.1 285.115 363.498 285.115Z" fill="white"/>
        <path d="M380.048 285.296H367.694C367.091 285.296 366.603 285.785 366.603 286.388C366.603 286.99 367.091 287.479 367.694 287.479H380.048C380.65 287.479 381.139 286.99 381.139 286.388C381.139 285.785 380.65 285.296 380.048 285.296Z" fill="white"/>
        <path d="M369.559 280.189H367.572C366.969 280.189 366.48 280.677 366.48 281.28C366.48 281.883 366.969 282.371 367.572 282.371H369.559C370.162 282.371 370.651 281.883 370.651 281.28C370.651 280.677 370.162 280.189 369.559 280.189Z" fill="white"/>
        <path d="M392.293 280.189H390.305C389.702 280.189 389.214 280.677 389.214 281.28C389.214 281.883 389.702 282.371 390.305 282.371H392.293C392.895 282.371 393.384 281.883 393.384 281.28C393.384 280.677 392.895 280.189 392.293 280.189Z" fill="white"/>
        <path d="M398.734 280.189H396.746C396.144 280.189 395.655 280.677 395.655 281.28C395.655 281.883 396.144 282.371 396.746 282.371H398.734C399.337 282.371 399.825 281.883 399.825 281.28C399.825 280.677 399.337 280.189 398.734 280.189Z" fill="white"/>
        <path d="M386.109 280.371H373.755C373.153 280.371 372.664 280.86 372.664 281.462C372.664 282.065 373.153 282.553 373.755 282.553H386.109C386.712 282.553 387.2 282.065 387.2 281.462C387.2 280.86 386.712 280.371 386.109 280.371Z" fill="white"/>
        <path d="M375.622 275.263H373.634C373.031 275.263 372.543 275.752 372.543 276.355C372.543 276.957 373.031 277.446 373.634 277.446H375.622C376.224 277.446 376.713 276.957 376.713 276.355C376.713 275.752 376.224 275.263 375.622 275.263Z" fill="white"/>
        <path d="M398.355 275.263H396.368C395.765 275.263 395.276 275.752 395.276 276.355C395.276 276.957 395.765 277.446 396.368 277.446H398.355C398.958 277.446 399.446 276.957 399.446 276.355C399.446 275.752 398.958 275.263 398.355 275.263Z" fill="white"/>
        <path d="M404.796 275.263H402.808C402.205 275.263 401.717 275.752 401.717 276.355C401.717 276.957 402.205 277.446 402.808 277.446H404.796C405.398 277.446 405.887 276.957 405.887 276.355C405.887 275.752 405.398 275.263 404.796 275.263Z" fill="white"/>
        <path d="M392.172 275.445H379.818C379.215 275.445 378.727 275.934 378.727 276.536C378.727 277.139 379.215 277.628 379.818 277.628H392.172C392.774 277.628 393.263 277.139 393.263 276.536C393.263 275.934 392.774 275.445 392.172 275.445Z" fill="white"/>
        <path d="M381.684 270.338H379.697C379.094 270.338 378.605 270.826 378.605 271.429C378.605 272.032 379.094 272.52 379.697 272.52H381.684C382.287 272.52 382.775 272.032 382.775 271.429C382.775 270.826 382.287 270.338 381.684 270.338Z" fill="white"/>
        <path d="M404.417 270.338H402.429C401.826 270.338 401.338 270.826 401.338 271.429C401.338 272.032 401.826 272.52 402.429 272.52H404.417C405.019 272.52 405.508 272.032 405.508 271.429C405.508 270.826 405.019 270.338 404.417 270.338Z" fill="white"/>
        <path d="M410.858 270.338H408.87C408.268 270.338 407.779 270.826 407.779 271.429C407.779 272.032 408.268 272.52 408.87 272.52H410.858C411.461 272.52 411.949 272.032 411.949 271.429C411.949 270.826 411.461 270.338 410.858 270.338Z" fill="white"/>
        <path d="M398.234 270.52H385.88C385.278 270.52 384.789 271.009 384.789 271.611C384.789 272.214 385.278 272.702 385.88 272.702H398.234C398.837 272.702 399.325 272.214 399.325 271.611C399.325 271.009 398.837 270.52 398.234 270.52Z" fill="white"/>
        <path d="M352.93 342.84L343.599 328.09L372.888 304.742L384.977 291.348C386.547 289.608 388.547 288.311 390.776 287.586C393.005 286.861 395.386 286.734 397.679 287.217C399.973 287.7 402.1 288.776 403.847 290.339C405.594 291.902 406.901 293.895 407.636 296.121C408.726 299.419 408.492 303.012 406.983 306.141C405.474 309.269 402.809 311.69 399.549 312.89L380.433 319.933L352.93 342.84Z" fill="#FFB6B6"/>
        <path d="M133.988 235.894V307.582H184.21V235.894C184.211 235.379 184.047 234.876 183.741 234.461C183.435 234.046 183.004 233.74 182.512 233.588C182.28 233.511 182.036 233.473 181.792 233.476H136.414C136.096 233.475 135.781 233.537 135.486 233.658C135.192 233.78 134.925 233.958 134.7 234.182C134.475 234.407 134.296 234.674 134.174 234.967C134.052 235.261 133.989 235.576 133.988 235.894ZM153.588 260.526C153.601 259.113 154.172 257.762 155.176 256.768C156.18 255.773 157.536 255.215 158.949 255.215C160.362 255.215 161.719 255.773 162.723 256.768C163.727 257.762 164.297 259.113 164.31 260.526V268.844C164.303 270.262 163.735 271.618 162.73 272.618C161.726 273.617 160.366 274.178 158.949 274.178C157.532 274.178 156.172 273.617 155.168 272.618C154.163 271.618 153.595 270.262 153.588 268.844V260.526Z" fill="#2F2E41"/>
        <path d="M133.835 305.29V312.202C133.836 312.561 133.978 312.904 134.231 313.158C134.483 313.412 134.826 313.556 135.184 313.559H183.016C183.374 313.557 183.717 313.413 183.97 313.159C184.223 312.905 184.365 312.561 184.365 312.202V305.29H133.835Z" fill="#3F3D56"/>
        <path d="M54.9824 127.887V258.779C54.9837 260.447 55.647 262.047 56.8264 263.226C58.0059 264.405 59.6053 265.069 61.2733 265.07H255.242C256.91 265.069 258.509 264.405 259.689 263.226C260.868 262.047 261.531 260.447 261.533 258.779V127.887C261.529 126.221 260.864 124.623 259.685 123.446C258.506 122.268 256.908 121.605 255.242 121.603H61.2733C59.6067 121.605 58.0089 122.268 56.8298 123.446C55.6507 124.623 54.9864 126.221 54.9824 127.887Z" fill="#3F3D56"/>
        <path d="M59.5322 129.516V257.164C59.5338 258.056 59.8885 258.91 60.5187 259.54C61.1488 260.17 62.0031 260.525 62.8943 260.526H253.627C254.518 260.525 255.372 260.17 256.002 259.54C256.632 258.91 256.987 258.056 256.989 257.164V129.516C256.989 128.623 256.635 127.767 256.004 127.136C255.374 126.504 254.519 126.148 253.627 126.146H62.8943C62.002 126.148 61.1469 126.504 60.5166 127.136C59.8863 127.767 59.5323 128.623 59.5322 129.516Z" fill="white"/>
        <path d="M94.9294 313.09C95.1236 313.334 95.3703 313.53 95.6512 313.664C95.9321 313.799 96.2397 313.868 96.5511 313.866H210.024C210.335 313.866 210.641 313.796 210.921 313.663C211.201 313.529 211.448 313.335 211.643 313.094C211.839 312.853 211.978 312.571 212.051 312.269C212.124 311.968 212.129 311.654 212.065 311.35L210.304 302.983C210.231 302.642 210.074 302.324 209.847 302.059C209.62 301.794 209.33 301.591 209.004 301.466C208.768 301.374 208.517 301.326 208.263 301.326H98.3055C98.052 301.326 97.8007 301.374 97.5646 301.466C97.2386 301.591 96.9488 301.794 96.7218 302.059C96.4947 302.324 96.3375 302.642 96.2645 302.983L94.5031 311.35C94.4404 311.653 94.4461 311.967 94.5199 312.268C94.5936 312.569 94.7335 312.85 94.9294 313.09Z" fill="#2F2E41"/>
        <path d="M247.437 143.731H68.9695C68.784 143.727 68.6075 143.65 68.4778 143.517C68.348 143.385 68.2754 143.207 68.2754 143.021C68.2754 142.835 68.348 142.657 68.4778 142.525C68.6075 142.392 68.784 142.315 68.9695 142.311H247.437C247.622 142.315 247.799 142.392 247.929 142.525C248.058 142.657 248.131 142.835 248.131 143.021C248.131 143.207 248.058 143.385 247.929 143.517C247.799 143.65 247.622 143.727 247.437 143.731Z" fill="#3F3D56"/>
        <path d="M81.1182 138.688C83.4153 138.688 85.2775 136.784 85.2775 134.436C85.2775 132.087 83.4153 130.184 81.1182 130.184C78.8211 130.184 76.959 132.087 76.959 134.436C76.959 136.784 78.8211 138.688 81.1182 138.688Z" fill="#3F3D56"/>
        <path d="M95.4864 138.688C97.7835 138.688 99.6457 136.784 99.6457 134.436C99.6457 132.087 97.7835 130.184 95.4864 130.184C93.1893 130.184 91.3271 132.087 91.3271 134.436C91.3271 136.784 93.1893 138.688 95.4864 138.688Z" fill="#3F3D56"/>
        <path d="M109.855 138.688C112.152 138.688 114.014 136.784 114.014 134.436C114.014 132.087 112.152 130.184 109.855 130.184C107.557 130.184 105.695 132.087 105.695 134.436C105.695 136.784 107.557 138.688 109.855 138.688Z" fill="#3F3D56"/>
        <path d="M238.785 131.235H228.58C228.378 131.24 228.186 131.323 228.045 131.468C227.904 131.612 227.825 131.806 227.825 132.007C227.825 132.209 227.904 132.403 228.045 132.547C228.186 132.692 228.378 132.775 228.58 132.78H238.785C238.988 132.777 239.182 132.694 239.324 132.55C239.467 132.405 239.547 132.21 239.547 132.007C239.547 131.804 239.467 131.61 239.324 131.465C239.182 131.321 238.988 131.238 238.785 131.235Z" fill="#3F3D56"/>
        <path d="M238.785 134.136H228.58C228.378 134.14 228.186 134.224 228.044 134.368C227.903 134.513 227.824 134.706 227.824 134.908C227.824 135.11 227.903 135.304 228.044 135.449C228.186 135.593 228.378 135.676 228.58 135.681H238.785C238.988 135.678 239.182 135.596 239.325 135.451C239.468 135.307 239.548 135.112 239.548 134.908C239.548 134.705 239.468 134.51 239.325 134.365C239.182 134.221 238.988 134.138 238.785 134.136Z" fill="#3F3D56"/>
        <path d="M238.785 137.037H228.58C228.378 137.041 228.186 137.125 228.045 137.269C227.904 137.413 227.825 137.607 227.825 137.809C227.825 138.011 227.904 138.205 228.045 138.349C228.186 138.493 228.378 138.577 228.58 138.581H238.785C238.988 138.579 239.182 138.496 239.324 138.351C239.467 138.207 239.547 138.012 239.547 137.809C239.547 137.606 239.467 137.411 239.324 137.267C239.182 137.122 238.988 137.039 238.785 137.037Z" fill="#3F3D56"/>
        <path d="M484.814 308.323C485.122 309.22 485.706 309.996 486.482 310.54C487.259 311.084 488.188 311.368 489.136 311.351L507.653 310.874C508.608 310.856 509.531 310.529 510.285 309.942C511.038 309.355 511.582 308.54 511.834 307.619L514.454 279.599C515.384 280.02 516.396 280.228 517.416 280.207C518.303 280.185 519.176 279.988 519.987 279.629C520.797 279.269 521.529 278.753 522.14 278.11C522.751 277.468 523.23 276.711 523.549 275.883C523.867 275.056 524.02 274.173 523.998 273.287C523.976 272.4 523.779 271.527 523.419 270.716C523.059 269.906 522.543 269.174 521.901 268.563C521.258 267.952 520.501 267.473 519.674 267.154C518.846 266.836 517.964 266.683 517.077 266.705C516.669 266.704 516.263 266.746 515.864 266.832C515.43 266.362 514.903 265.989 514.316 265.736C513.729 265.483 513.096 265.355 512.457 265.362L483.973 266.097C483.737 266.106 483.501 266.135 483.27 266.184C482.646 266.301 482.053 266.55 481.533 266.914C481.012 267.279 480.576 267.751 480.253 268.298C479.931 268.845 479.729 269.456 479.662 270.087C479.594 270.719 479.663 271.358 479.864 271.961L484.814 308.323ZM514.991 277.696L516.856 271.019C517.068 270.248 517.073 269.434 516.87 268.66C516.961 268.66 517.041 268.617 517.131 268.617C518.41 268.59 519.646 269.072 520.57 269.956C521.494 270.84 522.03 272.055 522.06 273.333C522.09 274.611 521.612 275.85 520.73 276.776C519.848 277.702 518.636 278.241 517.357 278.275C516.531 278.301 515.713 278.101 514.991 277.696Z" fill="#2F2E41"/>
        <path d="M483.27 266.184C483.876 269.654 490.699 272.094 498.903 271.67C506.447 271.322 512.615 268.673 513.745 265.534C513.327 265.41 512.892 265.352 512.456 265.362L483.972 266.097C483.736 266.106 483.501 266.135 483.27 266.184Z" fill="#3F3D56"/>
        <path d="M500.407 292.926C500.445 292.916 500.48 292.901 500.513 292.88L504.534 290.247C504.583 290.216 504.623 290.172 504.65 290.121C504.678 290.07 504.692 290.013 504.693 289.955C504.693 289.897 504.678 289.84 504.65 289.789C504.623 289.738 504.583 289.695 504.534 289.663L500.355 286.925C500.316 286.9 500.273 286.882 500.228 286.874C500.183 286.865 500.136 286.865 500.091 286.874C500.046 286.884 500.004 286.902 499.965 286.928C499.927 286.953 499.895 286.987 499.87 287.025C499.844 287.063 499.827 287.107 499.819 287.152C499.81 287.197 499.811 287.243 499.82 287.288C499.829 287.333 499.848 287.376 499.874 287.414C499.9 287.452 499.933 287.484 499.972 287.509L503.705 289.955L500.13 292.295C500.061 292.34 500.01 292.408 499.986 292.488C499.963 292.567 499.968 292.652 500.001 292.728C500.035 292.803 500.094 292.865 500.168 292.901C500.242 292.937 500.327 292.946 500.407 292.926Z" fill="#54B689"/>
        <path d="M494.055 293.219C494.123 293.202 494.184 293.165 494.23 293.113C494.276 293.061 494.306 292.997 494.316 292.928C494.325 292.859 494.314 292.789 494.283 292.726C494.252 292.664 494.204 292.612 494.143 292.577L490.437 290.452L494.019 287.791C494.056 287.763 494.087 287.729 494.111 287.69C494.134 287.65 494.15 287.607 494.156 287.561C494.163 287.516 494.161 287.47 494.15 287.425C494.138 287.381 494.119 287.339 494.091 287.302C494.064 287.265 494.03 287.234 493.99 287.211C493.951 287.187 493.907 287.172 493.862 287.165C493.817 287.158 493.77 287.161 493.726 287.172C493.681 287.183 493.64 287.203 493.603 287.23L489.591 290.21C489.545 290.244 489.508 290.29 489.483 290.342C489.458 290.395 489.447 290.453 489.451 290.511C489.454 290.569 489.472 290.625 489.503 290.674C489.533 290.723 489.576 290.764 489.626 290.793L493.795 293.183C493.874 293.229 493.967 293.241 494.055 293.219Z" fill="#54B689"/>
        <path d="M500.007 295.233C500.041 295.224 500.073 295.211 500.103 295.192C500.142 295.169 500.176 295.137 500.203 295.1C500.23 295.063 500.25 295.021 500.261 294.976C500.272 294.932 500.274 294.886 500.266 294.84C500.259 294.795 500.244 294.751 500.22 294.712L494.519 285.34C494.471 285.261 494.393 285.204 494.303 285.182C494.213 285.161 494.118 285.175 494.039 285.224C493.96 285.272 493.903 285.349 493.881 285.439C493.859 285.529 493.874 285.625 493.922 285.704L499.622 295.076C499.661 295.14 499.72 295.189 499.789 295.218C499.858 295.246 499.934 295.251 500.007 295.233Z" fill="#54B689"/>
        <path d="M179.527 182.314H148.638C147.378 182.314 146.356 183.336 146.356 184.596V187.614C146.356 188.874 147.378 189.895 148.638 189.895H179.527C180.787 189.895 181.808 188.874 181.808 187.614V184.596C181.808 183.336 180.787 182.314 179.527 182.314Z" fill="#54B689"/>
        <path d="M197.532 197.476H130.633C129.373 197.476 128.352 198.498 128.352 199.758V202.776C128.352 204.036 129.373 205.057 130.633 205.057H197.532C198.792 205.057 199.813 204.036 199.813 202.776V199.758C199.813 198.498 198.792 197.476 197.532 197.476Z" fill="#E6E6E6"/>
        <path d="M197.532 212.638H130.633C129.373 212.638 128.352 213.66 128.352 214.92V217.938C128.352 219.198 129.373 220.219 130.633 220.219H197.532C198.792 220.219 199.813 219.198 199.813 217.938V214.92C199.813 213.66 198.792 212.638 197.532 212.638Z" fill="#E6E6E6"/>
        <path d="M203.203 263.41L203.355 263.888L203.363 263.904L207.924 277.771L213.17 293.75L223.042 323.78L223.138 328.444V328.46L223.871 365.985L221.838 371.072L224.126 379.413C224.126 379.413 223.074 366.805 217.428 374.045C214.231 378.16 210.491 382.37 207.421 386.317C211.895 388.127 216.44 389.764 221.056 391.229C222.053 391.548 223.058 391.851 224.063 392.154C224.278 392.218 224.493 392.281 224.708 392.345C240.013 396.871 255.834 399.414 271.786 399.912C272.615 399.936 273.428 399.952 274.218 399.968C274.497 399.976 274.768 399.984 275.039 399.984C275.932 399.992 276.817 400 277.71 400C279.512 400 281.306 399.973 283.093 399.92C296.313 399.548 309.456 397.77 322.3 394.618C322.212 389.315 321.973 383.119 321.63 376.501C321.47 373.256 317.89 369.739 317.675 366.343C317.523 363.791 320.737 361.391 320.569 358.799C319.485 342.844 318.129 348.969 317.125 337.67C317.021 336.561 316.925 335.501 316.838 334.488C316.192 327.232 315.745 322.695 315.745 322.695L320.035 295.656L326.773 253.203L326.255 252.35L325.673 252.063L290.133 234.473L288.204 229.529C287.642 228.105 286.666 226.881 285.403 226.016C284.14 225.151 282.646 224.683 281.115 224.673L257.704 224.577C256.489 224.572 255.29 224.856 254.207 225.407C253.124 225.957 252.188 226.758 251.476 227.743L245.137 236.522L203.203 263.41Z" fill="#3F3D56"/>
        <path d="M228.44 317.098L223.137 328.444L219.517 336.195L213.29 368.8L210.172 372.109L207.501 360.394L179.543 366.602C178.626 361.507 179.298 366.774 178.731 361.185C178.891 361.025 179.058 360.866 179.226 360.706C179.672 360.292 180.047 359.901 180.039 359.526C179.72 340.246 180.677 307.433 188.667 287.555C189.918 284.309 191.568 281.231 193.579 278.393C193.738 278.177 193.89 277.962 194.041 277.747C197.725 272.588 200.053 267.509 203.355 263.896V263.888C203.375 263.872 203.394 263.853 203.41 263.833C203.422 263.827 203.433 263.819 203.442 263.809L226.12 251.784L227.093 279.118L227.786 298.766L228.44 317.098Z" fill="#3F3D56"/>
        <path d="M310.211 320.32L316.834 334.492L319.146 339.428L325.372 372.029L328.48 375.331L331.157 363.619L332.415 363.361L355.103 358.662L361.716 379.664C363.206 377.18 363.793 374.259 363.378 371.392C362.963 368.526 361.57 365.891 359.436 363.933C358.985 363.524 358.608 363.126 358.619 362.75C358.995 340.073 357.608 298.664 345.082 281.622C341.103 276.213 338.716 270.826 335.243 267.063C335.232 267.052 335.232 267.041 335.222 267.041L326.77 253.203L326.254 252.353L325.673 252.063L310.211 320.32Z" fill="#3F3D56"/>
        <path d="M270.086 217.915C287.287 217.915 301.232 203.971 301.232 186.769C301.232 169.568 287.287 155.624 270.086 155.624C252.885 155.624 238.94 169.568 238.94 186.769C238.94 203.971 252.885 217.915 270.086 217.915Z" fill="#FFB6B6"/>
        <path d="M312.182 165.014C311.941 164.756 311.65 164.55 311.327 164.407C311.004 164.264 310.655 164.188 310.302 164.182L310.77 162.882C310.923 162.473 310.964 162.03 310.89 161.599C310.815 161.169 310.627 160.765 310.346 160.431C310.064 160.097 309.699 159.843 309.287 159.697C308.875 159.55 308.432 159.516 308.002 159.597L306.297 159.926L306.458 158.786C306.519 158.362 306.469 157.929 306.313 157.53C306.156 157.13 305.899 156.779 305.565 156.509C305.231 156.24 304.833 156.062 304.41 155.993C303.987 155.924 303.553 155.966 303.151 156.116C302.786 156.26 302.393 156.32 302.001 156.292C301.609 156.265 301.228 156.149 300.887 155.955C300.544 155.767 300.246 155.506 300.014 155.191C299.782 154.876 299.622 154.514 299.545 154.131L298.95 151.265L298.887 151.111C295.994 146.288 290.43 142.779 283.622 141.493C277.561 140.34 271.347 140.927 265.357 141.479C262.981 141.703 260.297 141.955 258.06 143.325C256.159 144.499 254.551 146.848 254.879 149.217C248.973 147.407 242.64 151.02 239.502 155.578C235.783 161.002 235.175 167.796 235.077 173.108C234.811 185.676 237.405 195.958 242.766 203.675C243.157 204.234 243.255 205.402 244.031 205.793L243.87 205.534C244.737 205.968 245.618 206.667 245.289 207.415C244.346 209.567 250.616 214.328 255.033 215.9C263.092 218.773 273.808 218.528 281.343 217.494L281.609 215.712C284.328 215.341 286.243 214.635 286.781 213.531C287.732 212.72 288.543 211.993 289.249 211.322L289.255 211.315C289.269 211.301 289.297 211.28 289.311 211.266C292.715 208.002 293.505 206.142 293.862 203.312C294.204 200.537 293.596 197.72 292.974 195.182C306.073 197.209 287.816 181.231 300.02 178.141C300.16 178.098 300.302 178.063 300.446 178.036C300.803 177.952 301.159 177.869 301.502 177.771C303.153 177.323 304.734 176.647 306.199 175.765C309.61 173.689 310.735 170.935 312.497 167.831C312.751 167.389 312.857 166.878 312.801 166.371C312.744 165.864 312.528 165.389 312.182 165.014Z" fill="#2F2E41"/>
        <path d="M380.243 322.538C380.236 323.761 380.222 325.473 380.166 327.591C380.159 327.885 380.152 328.186 380.145 328.493C380.054 332.386 379.963 335.651 379.816 339.278C379.809 339.53 379.802 339.775 379.788 340.026C379.593 345.087 379.285 350.979 378.754 360.311C377.768 377.548 376.049 362.68 374.322 368.727C374.238 369.027 374.147 369.384 374.064 369.803C373.802 371.325 373.361 372.81 372.75 374.228C371.834 374.773 370.89 375.297 369.961 375.821C367.311 377.296 364.62 378.715 361.908 380.064C360.384 380.819 358.854 381.56 357.316 382.273C357.071 382.385 356.834 382.497 356.596 382.602C348.721 386.244 340.606 389.341 332.306 391.87C330.685 392.359 329.07 392.835 327.434 393.275C325.729 393.75 324.023 394.198 322.297 394.617C309.453 397.77 296.311 399.549 283.091 399.922C281.308 399.978 279.512 399.999 277.709 399.999C276.814 399.999 275.933 399.992 275.038 399.985C274.766 399.985 274.493 399.978 274.221 399.971C273.431 399.95 272.613 399.936 271.788 399.915C255.836 399.418 240.015 396.874 224.711 392.345L224.061 392.157C223.055 391.849 222.055 391.549 221.056 391.227C216.442 389.766 211.897 388.131 207.418 386.32C204 384.943 200.622 383.466 197.283 381.889C197.253 381.88 197.224 381.866 197.199 381.847C196.5 381.525 195.794 381.19 195.095 380.847C195.005 380.798 194.907 380.749 194.809 380.7C192.202 379.428 189.622 378.095 187.071 376.702C184.925 371.774 181.906 370.831 180.032 366.497C179.487 365.209 179.093 363.863 178.858 362.485C178.858 362.471 178.851 362.457 178.851 362.436C179.047 365.036 178.019 357.823 178.844 362.408C178.837 362.324 178.83 362.233 178.823 362.128C178.802 361.877 178.774 361.569 178.732 361.185C176.335 337.776 176.488 311.005 175.447 288.945C175.377 287.519 175.305 286.153 175.23 284.848C175.209 284.415 175.181 283.989 175.153 283.569C175.202 283.443 175.258 283.311 175.321 283.185C175.334 283.149 175.351 283.114 175.37 283.08C175.391 283.037 175.414 282.995 175.44 282.954C175.454 282.933 175.475 282.905 175.489 282.884C175.499 282.86 175.511 282.837 175.524 282.814C175.587 282.717 175.657 282.612 175.733 282.514C175.768 282.472 175.796 282.437 175.831 282.402C175.855 282.366 175.884 282.333 175.915 282.304C175.937 282.271 175.963 282.24 175.992 282.213C176.02 282.185 176.048 282.15 176.083 282.115C176.098 282.093 176.117 282.074 176.139 282.06C176.194 281.996 176.255 281.938 176.321 281.885C176.57 281.655 176.836 281.445 177.117 281.256C177.215 281.193 177.32 281.13 177.418 281.06C178.122 280.639 178.864 280.283 179.634 279.998C179.899 279.9 180.165 279.809 180.452 279.711C180.556 279.683 180.654 279.648 180.759 279.613C180.913 279.564 181.067 279.515 181.228 279.48C182.024 279.243 182.884 279.04 183.814 278.851C183.926 278.83 184.044 278.809 184.163 278.781C184.331 278.746 184.506 278.718 184.68 278.69C184.918 278.648 185.163 278.607 185.407 278.565C187.483 278.236 189.839 277.991 192.439 277.831C192.684 277.817 192.929 277.803 193.173 277.789C193.46 277.775 193.746 277.761 194.04 277.747C194.285 277.733 194.536 277.726 194.788 277.719C195.032 277.705 195.284 277.698 195.543 277.691C196.249 277.67 196.976 277.649 197.717 277.635C199.828 277.593 202.05 277.607 204.385 277.656C205.468 277.684 206.573 277.712 207.705 277.761C207.782 277.761 207.852 277.768 207.922 277.768C208.907 277.803 209.9 277.845 210.92 277.901C211.633 277.936 212.353 277.97 213.073 278.012C213.751 278.054 214.436 278.096 215.128 278.145C215.667 278.173 216.205 278.215 216.75 278.25C217.211 278.285 217.673 278.32 218.134 278.348L218.763 278.39C219.105 278.418 219.448 278.439 219.798 278.474C220.566 278.537 221.335 278.6 222.118 278.662C222.894 278.732 223.684 278.802 224.474 278.872C225.264 278.942 226.06 279.019 226.857 279.096C226.941 279.103 227.018 279.11 227.095 279.117C227.822 279.194 228.549 279.264 229.283 279.34C229.451 279.354 229.625 279.368 229.793 279.389C230.493 279.46 231.206 279.542 231.912 279.617C232.129 279.64 232.345 279.663 232.562 279.687C233.115 279.747 233.66 279.799 234.218 279.865C234.951 279.949 235.699 280.025 236.426 280.123C236.993 280.186 237.559 280.249 238.125 280.319C239.013 280.424 239.914 280.536 240.816 280.655C241.158 280.696 241.501 280.738 241.843 280.787C244.416 281.109 247.016 281.465 249.658 281.836C253.663 282.402 257.731 283.017 261.827 283.681C265.931 284.345 270.057 285.047 274.206 285.785C275.255 285.974 276.303 286.163 277.359 286.358C277.834 286.449 278.31 286.54 278.785 286.631C279.596 286.778 280.406 286.931 281.217 287.085C282.028 287.239 282.839 287.393 283.65 287.553C284.614 287.742 285.586 287.931 286.551 288.12C292.904 289.378 299.223 290.72 305.388 292.125C306.402 292.356 307.415 292.593 308.422 292.824C310.435 293.292 312.429 293.767 314.405 294.25C314.95 294.376 315.489 294.508 316.027 294.641C317.369 294.977 318.711 295.312 320.032 295.655L320.263 295.718C321.234 295.955 322.185 296.2 323.135 296.452C325.379 297.039 327.586 297.633 329.755 298.234C331.195 298.632 332.618 299.036 334.026 299.443C336.13 300.051 338.192 300.666 340.198 301.289C340.694 301.442 341.19 301.596 341.68 301.743C343.147 302.197 344.594 302.659 345.999 303.12C347.118 303.483 348.208 303.854 349.285 304.224C350.361 304.595 351.416 304.965 352.451 305.336C353.115 305.573 353.772 305.825 354.429 306.063C355.373 306.412 356.302 306.762 357.211 307.111C357.491 307.216 357.763 307.328 358.036 307.433C358.211 307.51 358.378 307.572 358.546 307.642C358.875 307.775 359.21 307.901 359.532 308.034C359.86 308.16 360.182 308.292 360.503 308.432C360.818 308.558 361.139 308.691 361.447 308.824C361.761 308.949 362.069 309.082 362.377 309.222C362.635 309.327 362.887 309.439 363.131 309.551C363.628 309.767 364.124 309.984 364.606 310.208C364.844 310.319 365.082 310.424 365.319 310.536L365.864 310.788C365.941 310.83 366.018 310.865 366.095 310.9C366.27 310.984 366.452 311.074 366.626 311.158C367.032 311.347 367.43 311.55 367.822 311.738C368.346 312.004 368.856 312.27 369.345 312.528C369.842 312.794 370.324 313.06 370.785 313.318C370.862 313.36 370.932 313.402 371.009 313.444C371.114 313.5 371.219 313.563 371.324 313.619C371.68 313.821 372.023 314.031 372.365 314.234C373.036 314.646 373.672 315.052 374.266 315.457C374.399 315.548 374.525 315.639 374.658 315.723C375.098 316.037 375.517 316.345 375.909 316.659C375.909 316.666 375.909 316.666 375.916 316.666C376.049 316.764 376.175 316.869 376.3 316.967C376.405 317.065 376.517 317.149 376.622 317.246C376.985 317.561 377.321 317.861 377.628 318.169C377.731 318.264 377.83 318.364 377.922 318.47C377.963 318.503 378 318.541 378.034 318.581C378.174 318.721 378.299 318.861 378.418 319.001C378.437 319.02 378.453 319.041 378.467 319.064C378.635 319.259 378.789 319.455 378.936 319.651C379.005 319.749 379.082 319.847 379.145 319.944C379.229 320.063 379.313 320.189 379.383 320.308C379.446 320.406 379.502 320.511 379.558 320.609C379.706 320.86 379.832 321.125 379.935 321.398C380.014 321.584 380.077 321.776 380.124 321.972C380.177 322.157 380.216 322.346 380.243 322.538Z" fill="#2F2E41"/>
        <path opacity="0.2" d="M380.243 322.538C380.236 323.761 380.222 325.473 380.166 327.591C380.159 327.885 380.145 328.186 380.138 328.493C380.068 331.464 379.963 335.133 379.817 339.278C379.81 339.53 379.802 339.775 379.789 340.026C379.593 345.087 379.285 350.979 378.754 360.311C377.768 377.548 376.049 362.68 374.322 368.727C369.527 365.777 364.271 362.687 358.651 359.514C357.638 358.941 356.615 358.365 355.583 357.788C344.343 351.518 331.789 344.947 318.683 338.44C318.166 338.181 317.642 337.922 317.124 337.671C287.103 322.831 254.335 308.397 227.787 298.765C222.664 296.906 217.771 295.228 213.171 293.754C203.483 290.657 195.11 288.49 188.665 287.554C181.955 286.575 177.32 286.924 175.447 288.944C175.377 287.519 175.305 286.153 175.23 284.848C175.202 284.415 175.174 283.989 175.146 283.569C175.19 283.454 175.246 283.344 175.3 283.234C175.308 283.217 175.313 283.201 175.321 283.185C175.335 283.149 175.351 283.114 175.37 283.08C175.391 283.037 175.414 282.995 175.44 282.954C175.463 282.905 175.491 282.858 175.524 282.814C175.587 282.717 175.657 282.612 175.734 282.514C175.79 282.44 175.851 282.37 175.915 282.304C175.937 282.27 175.963 282.24 175.992 282.213C176.02 282.185 176.048 282.15 176.083 282.115C176.098 282.093 176.117 282.074 176.139 282.059C176.194 281.996 176.255 281.937 176.321 281.885C176.57 281.655 176.837 281.445 177.118 281.256C177.215 281.193 177.32 281.13 177.418 281.06C178.123 280.639 178.864 280.283 179.634 279.997C179.9 279.9 180.165 279.809 180.452 279.711C180.557 279.683 180.654 279.648 180.759 279.613C180.913 279.564 181.067 279.515 181.228 279.48C182.025 279.243 182.884 279.04 183.814 278.851C184.093 278.795 184.387 278.739 184.681 278.69C184.918 278.648 185.163 278.606 185.408 278.565C187.484 278.236 189.839 277.991 192.439 277.831C192.684 277.817 192.929 277.803 193.173 277.789C193.46 277.775 193.746 277.761 194.04 277.747C194.285 277.733 194.536 277.726 194.788 277.719C195.033 277.705 195.284 277.698 195.543 277.691C196.249 277.67 196.976 277.649 197.717 277.635C199.828 277.6 202.05 277.614 204.385 277.663C205.468 277.684 206.573 277.719 207.705 277.768C207.775 277.768 207.852 277.775 207.922 277.775C208.908 277.803 209.907 277.852 210.921 277.901C211.634 277.935 212.353 277.97 213.073 278.012C213.751 278.054 214.436 278.096 215.128 278.145C215.667 278.173 216.205 278.215 216.75 278.25C217.211 278.285 217.673 278.32 218.134 278.348C218.686 278.39 219.238 278.432 219.798 278.474C220.567 278.537 221.335 278.599 222.118 278.662C222.894 278.732 223.684 278.802 224.474 278.872C225.264 278.942 226.061 279.019 226.857 279.096C226.941 279.103 227.018 279.11 227.095 279.117C227.822 279.194 228.549 279.264 229.283 279.34C233.351 279.753 237.538 280.235 241.844 280.787C244.416 281.116 247.021 281.468 249.658 281.843C253.664 282.409 257.732 283.024 261.828 283.681C265.931 284.345 270.057 285.046 274.207 285.785C275.255 285.974 276.304 286.163 277.359 286.358C278.645 286.596 279.931 286.838 281.218 287.085C282.028 287.239 282.839 287.393 283.65 287.554C284.615 287.742 285.586 287.931 286.551 288.12C292.905 289.378 299.223 290.72 305.388 292.125C306.402 292.355 307.416 292.593 308.422 292.824C310.435 293.292 312.43 293.767 314.405 294.25C314.951 294.383 315.489 294.515 316.027 294.648C317.376 294.984 318.711 295.319 320.032 295.655V295.662C320.109 295.676 320.186 295.697 320.263 295.718C321.227 295.962 322.185 296.207 323.136 296.459C325.379 297.046 327.586 297.638 329.755 298.234C331.195 298.639 332.621 299.038 334.026 299.443C336.13 300.058 338.192 300.673 340.198 301.289C340.694 301.442 341.191 301.596 341.68 301.743C343.148 302.204 344.588 302.663 346 303.12C347.118 303.483 348.208 303.854 349.285 304.224C350.361 304.595 351.417 304.965 352.451 305.336C353.122 305.573 353.779 305.818 354.429 306.056C355.38 306.405 356.303 306.755 357.211 307.111C357.491 307.216 357.763 307.328 358.036 307.433C358.546 307.628 359.043 307.831 359.532 308.034C359.86 308.16 360.182 308.292 360.503 308.432C360.818 308.558 361.14 308.691 361.447 308.824C361.762 308.949 362.069 309.082 362.377 309.222C362.635 309.327 362.887 309.439 363.132 309.551C363.628 309.767 364.124 309.984 364.607 310.208C364.844 310.319 365.082 310.424 365.32 310.536L365.865 310.788C365.942 310.83 366.018 310.865 366.095 310.9C366.69 311.179 367.263 311.459 367.822 311.738C368.346 312.004 368.856 312.27 369.346 312.528C369.926 312.836 370.478 313.136 371.009 313.444C371.114 313.5 371.219 313.563 371.324 313.619C371.68 313.821 372.023 314.031 372.365 314.234C373.036 314.646 373.672 315.052 374.267 315.457C374.854 315.862 375.399 316.261 375.909 316.659C375.909 316.666 375.909 316.666 375.916 316.666C376.161 316.862 376.398 317.058 376.622 317.246C376.986 317.561 377.321 317.861 377.629 318.169C377.732 318.264 377.83 318.364 377.922 318.47C377.963 318.503 378 318.541 378.034 318.581C378.181 318.742 378.328 318.903 378.467 319.064C378.635 319.259 378.789 319.455 378.936 319.651C379.006 319.749 379.083 319.847 379.145 319.944C379.229 320.063 379.313 320.189 379.383 320.308C379.446 320.406 379.502 320.511 379.558 320.609C379.706 320.86 379.832 321.125 379.935 321.398C380.012 321.585 380.075 321.776 380.124 321.972C380.177 322.157 380.217 322.346 380.243 322.538Z" fill="black"/>
    </g>
    <defs>
        <clipPath id="clip0_14_39">
            <rect width="549.976" height="400" fill="white"/>
        </clipPath>
    </defs>
</svg>
